REM DIRINDEX 1\8,1\2\11,1\3\12,1\3\14,1\5\15,1\5\16,1\6\17,1\6\18,1\4\19,1\4\20,1\4\21,1\4\22,1\7\23,1\7\24,1\7\25,1\2\9\26,1\2\9\27,1\2\10\28,1\2\10\29,1\2\10\30,1\2\10\31,1\2\10\32,1\3\13\33,1\3\13\34,1\3\13\35
REM DIRNAME cjc123,folder01,folder02,folder03,folder04,folder05,folder06,folder07,folder08,folder09,folder10,folder11,folder12,folder13,folder14,folder15,folder16,folder17,folder18,folder19,folder20,folder21,folder22,folder23,folder24,folder25,folder26,folder27,folder28,folder29,folder30,folder31,folder32,folder33,folder34
TITLE ""
FILE "134 134_例文UNIT2_SET6.mp3" MP3
  TRACK 01 AUDIO
    TITLE "22:cjc123_3142"
    INDEX 01 00:00:00
  TRACK 02 AUDIO
    TITLE "0:"
    INDEX 01 00:02:67
  TRACK 03 AUDIO
    TITLE "19:cjc123_3143"
    INDEX 01 00:03:39
  TRACK 04 AUDIO
    TITLE "0:"
    INDEX 01 00:07:17
  TRACK 05 AUDIO
    TITLE "20:cjc123_3144"
    INDEX 01 00:07:54
  TRACK 06 AUDIO
    TITLE "0:"
    INDEX 01 00:11:19
  TRACK 07 AUDIO
    TITLE "21:cjc123_3145"
    INDEX 01 00:11:48
  TRACK 08 AUDIO
    TITLE "0:"
    INDEX 01 00:15:23
  TRACK 09 AUDIO
    TITLE "19:cjc123_3146"
    INDEX 01 00:16:06
  TRACK 10 AUDIO
    TITLE "0:"
    INDEX 01 00:19:48
  TRACK 11 AUDIO
    TITLE "20:cjc123_3147"
    INDEX 01 00:20:14
  TRACK 12 AUDIO
    TITLE "0:"
    INDEX 01 00:25:52
  TRACK 13 AUDIO
    TITLE "21:cjc123_3148"
    INDEX 01 00:26:05
  TRACK 14 AUDIO
    TITLE "0:"
    INDEX 01 00:29:48
  TRACK 15 AUDIO
    TITLE "19:cjc123_3149"
    INDEX 01 00:30:28
  TRACK 16 AUDIO
    TITLE "0:"
    INDEX 01 00:33:62
  TRACK 17 AUDIO
    TITLE "20:cjc123_3150"
    INDEX 01 00:34:26
  TRACK 18 AUDIO
    TITLE "0:"
    INDEX 01 00:39:19
  TRACK 19 AUDIO
    TITLE "21:cjc123_3151"
    INDEX 01 00:39:45
  TRACK 20 AUDIO
    TITLE "0:"
    INDEX 01 00:43:07
  TRACK 21 AUDIO
    TITLE "19:cjc123_3152"
    INDEX 01 00:43:64
  TRACK 22 AUDIO
    TITLE "0:"
    INDEX 01 00:47:05
  TRACK 23 AUDIO
    TITLE "20:cjc123_3153"
    INDEX 01 00:47:40
  TRACK 24 AUDIO
    TITLE "0:"
    INDEX 01 00:51:07
  TRACK 25 AUDIO
    TITLE "21:cjc123_3154"
    INDEX 01 00:51:38
  TRACK 26 AUDIO
    TITLE "0:"
    INDEX 01 00:54:56
  TRACK 27 AUDIO
    TITLE "19:cjc123_3155"
    INDEX 01 00:55:30
  TRACK 28 AUDIO
    TITLE "0:"
    INDEX 01 00:59:20
  TRACK 29 AUDIO
    TITLE "20:cjc123_3156"
    INDEX 01 00:59:55
  TRACK 30 AUDIO
    TITLE "0:"
    INDEX 01 01:03:43
  TRACK 31 AUDIO
    TITLE "21:cjc123_3157"
    INDEX 01 01:03:69
  TRACK 32 AUDIO
    TITLE "0:"
    INDEX 01 01:07:59
  TRACK 33 AUDIO
    TITLE "19:cjc123_3158"
    INDEX 01 01:08:35
  TRACK 34 AUDIO
    TITLE "0:"
    INDEX 01 01:11:72
  TRACK 35 AUDIO
    TITLE "20:cjc123_3159"
    INDEX 01 01:12:42
  TRACK 36 AUDIO
    TITLE "0:"
    INDEX 01 01:16:12
  TRACK 37 AUDIO
    TITLE "21:cjc123_3160"
    INDEX 01 01:16:42
  TRACK 38 AUDIO
    TITLE "0:"
    INDEX 01 01:20:04
  TRACK 39 AUDIO
    TITLE "19:cjc123_3161"
    INDEX 01 01:20:65
  TRACK 40 AUDIO
    TITLE "0:"
    INDEX 01 01:23:46
  TRACK 41 AUDIO
    TITLE "20:cjc123_3162"
    INDEX 01 01:24:10
  TRACK 42 AUDIO
    TITLE "0:"
    INDEX 01 01:27:22
  TRACK 43 AUDIO
    TITLE "21:cjc123_3163"
    INDEX 01 01:27:50
  TRACK 44 AUDIO
    TITLE "0:"
    INDEX 01 01:30:32
  TRACK 45 AUDIO
    TITLE "19:cjc123_3164"
    INDEX 01 01:31:10
  TRACK 46 AUDIO
    TITLE "0:"
    INDEX 01 01:34:36
  TRACK 47 AUDIO
    TITLE "20:cjc123_3165"
    INDEX 01 01:34:69
  TRACK 48 AUDIO
    TITLE "0:"
    INDEX 01 01:39:45
  TRACK 49 AUDIO
    TITLE "21:cjc123_3166"
    INDEX 01 01:39:74
  TRACK 50 AUDIO
    TITLE "0:"
    INDEX 01 01:43:27
  TRACK 51 AUDIO
    TITLE "19:cjc123_3167"
    INDEX 01 01:44:01
  TRACK 52 AUDIO
    TITLE "0:"
    INDEX 01 01:47:23
  TRACK 53 AUDIO
    TITLE "20:cjc123_3168"
    INDEX 01 01:47:56
  TRACK 54 AUDIO
    TITLE "0:"
    INDEX 01 01:51:28
  TRACK 55 AUDIO
    TITLE "21:cjc123_3169"
    INDEX 01 01:51:56
  TRACK 56 AUDIO
    TITLE "0:"
    INDEX 01 01:55:03
  TRACK 57 AUDIO
    TITLE "19:cjc123_3170"
    INDEX 01 01:55:56
  TRACK 58 AUDIO
    TITLE "0:"
    INDEX 01 01:58:46
  TRACK 59 AUDIO
    TITLE "20:cjc123_3171"
    INDEX 01 01:59:18
  TRACK 60 AUDIO
    TITLE "0:"
    INDEX 01 02:02:18
  TRACK 61 AUDIO
    TITLE "21:cjc123_3172"
    INDEX 01 02:02:48
  TRACK 62 AUDIO
    TITLE "0:"
    INDEX 01 02:05:38
  TRACK 63 AUDIO
    TITLE "19:cjc123_3173"
    INDEX 01 02:06:26
  TRACK 64 AUDIO
    TITLE "0:"
    INDEX 01 02:09:40
  TRACK 65 AUDIO
    TITLE "20:cjc123_3174"
    INDEX 01 02:10:08
  TRACK 66 AUDIO
    TITLE "0:"
    INDEX 01 02:13:73
  TRACK 67 AUDIO
    TITLE "21:cjc123_3175"
    INDEX 01 02:14:26
  TRACK 68 AUDIO
    TITLE "0:"
    INDEX 01 02:17:38
  TRACK 69 AUDIO
    TITLE "19:cjc123_3176"
    INDEX 01 02:18:25
  TRACK 70 AUDIO
    TITLE "0:"
    INDEX 01 02:23:32
  TRACK 71 AUDIO
    TITLE "20:cjc123_3177"
    INDEX 01 02:23:74
  TRACK 72 AUDIO
    TITLE "0:"
    INDEX 01 02:28:39
  TRACK 73 AUDIO
    TITLE "21:cjc123_3178"
    INDEX 01 02:28:67
  TRACK 74 AUDIO
    TITLE "0:"
    INDEX 01 02:33:72
  TRACK 75 AUDIO
    TITLE "19:cjc123_3179"
    INDEX 01 02:34:60
  TRACK 76 AUDIO
    TITLE "0:"
    INDEX 01 02:38:40
  TRACK 77 AUDIO
    TITLE "20:cjc123_3180"
    INDEX 01 02:38:73
  TRACK 78 AUDIO
    TITLE "0:"
    INDEX 01 02:41:68
  TRACK 79 AUDIO
    TITLE "21:cjc123_3181"
    INDEX 01 02:42:20
  TRACK 80 AUDIO
    TITLE "0:"
    INDEX 01 02:46:02
  TRACK 81 AUDIO
    TITLE "19:cjc123_3182"
    INDEX 01 02:46:45
  TRACK 82 AUDIO
    TITLE "0:"
    INDEX 01 02:50:18
  TRACK 83 AUDIO
    TITLE "20:cjc123_3183"
    INDEX 01 02:50:65
  TRACK 84 AUDIO
    TITLE "0:"
    INDEX 01 02:53:63
  TRACK 85 AUDIO
    TITLE "21:cjc123_3184"
    INDEX 01 02:54:19
  TRACK 86 AUDIO
    TITLE "0:"
    INDEX 01 02:57:65
  TRACK 87 AUDIO
    TITLE "19:cjc123_3185"
    INDEX 01 02:58:39
  TRACK 88 AUDIO
    TITLE "0:"
    INDEX 01 03:01:19
  TRACK 89 AUDIO
    TITLE "20:cjc123_3186"
    INDEX 01 03:01:49
  TRACK 90 AUDIO
    TITLE "0:"
    INDEX 01 03:04:41
  TRACK 91 AUDIO
    TITLE "21:cjc123_3187"
    INDEX 01 03:04:69
  TRACK 92 AUDIO
    TITLE "0:"
    INDEX 01 03:07:51
